<svg width="93" height="7" viewBox="0 0 93 7" fill="none" xmlns="http://www.w3.org/2000/svg">
<path d="M3.32 6.252C2.48 6.252 1.784 5.988 1.232 5.46C0.704 4.932 0.44 4.296 0.44 3.552C0.44 2.784 0.704 2.136 1.232 1.608C1.784 1.08 2.48 0.816 3.32 0.816C4.16 0.816 4.844 1.08 5.372 1.608C5.924 2.136 6.2 2.784 6.2 3.552C6.2 4.296 5.924 4.932 5.372 5.46C4.844 5.988 4.16 6.252 3.32 6.252ZM11.9684 6.252C11.1284 6.252 10.4324 5.988 9.88044 5.46C9.35244 4.932 9.08844 4.296 9.08844 3.552C9.08844 2.784 9.35244 2.136 9.88044 1.608C10.4324 1.08 11.1284 0.816 11.9684 0.816C12.8084 0.816 13.4924 1.08 14.0204 1.608C14.5724 2.136 14.8484 2.784 14.8484 3.552C14.8484 4.296 14.5724 4.932 14.0204 5.46C13.4924 5.988 12.8084 6.252 11.9684 6.252ZM20.6169 6.252C19.7769 6.252 19.0809 5.988 18.5289 5.46C18.0009 4.932 17.7369 4.296 17.7369 3.552C17.7369 2.784 18.0009 2.136 18.5289 1.608C19.0809 1.08 19.7769 0.816 20.6169 0.816C21.4569 0.816 22.1409 1.08 22.6689 1.608C23.2209 2.136 23.4969 2.784 23.4969 3.552C23.4969 4.296 23.2209 4.932 22.6689 5.46C22.1409 5.988 21.4569 6.252 20.6169 6.252ZM29.2653 6.252C28.4253 6.252 27.7293 5.988 27.1773 5.46C26.6493 4.932 26.3853 4.296 26.3853 3.552C26.3853 2.784 26.6493 2.136 27.1773 1.608C27.7293 1.08 28.4253 0.816 29.2653 0.816C30.1053 0.816 30.7893 1.08 31.3173 1.608C31.8693 2.136 32.1453 2.784 32.1453 3.552C32.1453 4.296 31.8693 4.932 31.3173 5.46C30.7893 5.988 30.1053 6.252 29.2653 6.252ZM37.9138 6.252C37.0738 6.252 36.3778 5.988 35.8258 5.46C35.2978 4.932 35.0338 4.296 35.0338 3.552C35.0338 2.784 35.2978 2.136 35.8258 1.608C36.3778 1.08 37.0738 0.816 37.9138 0.816C38.7538 0.816 39.4378 1.08 39.9658 1.608C40.5178 2.136 40.7938 2.784 40.7938 3.552C40.7938 4.296 40.5178 4.932 39.9658 5.46C39.4378 5.988 38.7538 6.252 37.9138 6.252ZM46.5622 6.252C45.7222 6.252 45.0262 5.988 44.4742 5.46C43.9462 4.932 43.6822 4.296 43.6822 3.552C43.6822 2.784 43.9462 2.136 44.4742 1.608C45.0262 1.08 45.7222 0.816 46.5622 0.816C47.4022 0.816 48.0862 1.08 48.6142 1.608C49.1662 2.136 49.4422 2.784 49.4422 3.552C49.4422 4.296 49.1662 4.932 48.6142 5.46C48.0862 5.988 47.4022 6.252 46.5622 6.252ZM55.2106 6.252C54.3706 6.252 53.6746 5.988 53.1226 5.46C52.5946 4.932 52.3306 4.296 52.3306 3.552C52.3306 2.784 52.5946 2.136 53.1226 1.608C53.6746 1.08 54.3706 0.816 55.2106 0.816C56.0506 0.816 56.7346 1.08 57.2626 1.608C57.8146 2.136 58.0906 2.784 58.0906 3.552C58.0906 4.296 57.8146 4.932 57.2626 5.46C56.7346 5.988 56.0506 6.252 55.2106 6.252ZM63.8591 6.252C63.0191 6.252 62.3231 5.988 61.7711 5.46C61.2431 4.932 60.9791 4.296 60.9791 3.552C60.9791 2.784 61.2431 2.136 61.7711 1.608C62.3231 1.08 63.0191 0.816 63.8591 0.816C64.6991 0.816 65.3831 1.08 65.9111 1.608C66.4631 2.136 66.7391 2.784 66.7391 3.552C66.7391 4.296 66.4631 4.932 65.9111 5.46C65.3831 5.988 64.6991 6.252 63.8591 6.252ZM72.5075 6.252C71.6675 6.252 70.9715 5.988 70.4195 5.46C69.8915 4.932 69.6275 4.296 69.6275 3.552C69.6275 2.784 69.8915 2.136 70.4195 1.608C70.9715 1.08 71.6675 0.816 72.5075 0.816C73.3475 0.816 74.0315 1.08 74.5595 1.608C75.1115 2.136 75.3875 2.784 75.3875 3.552C75.3875 4.296 75.1115 4.932 74.5595 5.46C74.0315 5.988 73.3475 6.252 72.5075 6.252ZM81.1559 6.252C80.3159 6.252 79.6199 5.988 79.0679 5.46C78.5399 4.932 78.2759 4.296 78.2759 3.552C78.2759 2.784 78.5399 2.136 79.0679 1.608C79.6199 1.08 80.3159 0.816 81.1559 0.816C81.9959 0.816 82.6799 1.08 83.2079 1.608C83.7599 2.136 84.0359 2.784 84.0359 3.552C84.0359 4.296 83.7599 4.932 83.2079 5.46C82.6799 5.988 81.9959 6.252 81.1559 6.252ZM89.8044 6.252C88.9644 6.252 88.2684 5.988 87.7164 5.46C87.1884 4.932 86.9244 4.296 86.9244 3.552C86.9244 2.784 87.1884 2.136 87.7164 1.608C88.2684 1.08 88.9644 0.816 89.8044 0.816C90.6444 0.816 91.3284 1.08 91.8564 1.608C92.4084 2.136 92.6844 2.784 92.6844 3.552C92.6844 4.296 92.4084 4.932 91.8564 5.46C91.3284 5.988 90.6444 6.252 89.8044 6.252Z" fill="black"/>
</svg>
